# xmcd
#
# Track frame offsets:
# 150
# 16107
# 37232
# 59185
# 74612
# 92280
# 112122
# 128152
# 139390
# 165347
# 187077
# 205790
#
# Disc length: 2982 seconds
#
#
# Revision: 0
# Processed by: cddbd v1.5.2PL0 Copyright (c) Steve Scherf et al.
# Submitted via: FreeRIP 2.95 
#
DISCID=b30ba40c
DTITLE=Alberto Cortéz - Pasajes de la Balada
DYEAR=2000
DGENRE=Latin
TTITLE0=Mi arbol y yo
TTITLE1=Cuando un amigo se va
TTITLE2=El abuelo
TTITLE3=En un rincon del alma
TTITLE4=Castillos en el aire
TTITLE5=Distancia
TTITLE6=Miguitas de ternura
TTITLE7=El vino
TTITLE8=Parábola de uno mismo
TTITLE9=La vejez
TTITLE10=Nuestra casa
TTITLE11=Equipaje
EXTD=
EXTT0=
EXTT1=
EXTT2=
EXTT3=
EXTT4=
EXTT5=
EXTT6=
EXTT7=
EXTT8=
EXTT9=
EXTT10=
EXTT11=
PLAYORDER=
